# xmcd CD database file
#
# Track frame offsets:
#	150
#	16485
#	29190
#	49272
#	65497
#	82322
#	98392
#	119172
#	136312
#	155755
#	173225
#	188317
#	206900
#	223252
#	241285
#	257142
#	271235
#	286477
#	304357
#	321652
#	334767
#
# Disc length: 4685 seconds
#
# Revision: 5
# Processed by: cddbd v1.5.2PL0 Copyright (c) Steve Scherf et al.
# Submitted via: CDex 1.70beta2
#
DISCID=52124b15
DTITLE=Leann Rimes - Greatest Hits
DYEAR=2003
DGENRE=Pop
TTITLE0=We Can
TTITLE1=Blue
TTITLE2=How Do I Live
TTITLE3=Can't Fight The Moonlight
TTITLE4=One Way Ticket(Because I Can)
TTITLE5=Life Goes On
TTITLE6=Commitment
TTITLE7=I Need You
TTITLE8=Written In The Stars(Duet with Elton John)
TTITLE9=Unchained Melody
TTITLE10=The Light In Your Eyes
TTITLE11=Looking Through Your Eyes(Bonus Track For Japan)
TTITLE12=You Light Up My Life
TTITLE13=Suddenly(Bonus Track For Japan)
TTITLE14=Nothin' New Under The Moon
TTITLE15=Big Deal
TTITLE16=But I Do Love You(Bonus Track For Japan)
TTITLE17=Last Thing On My Mind
TTITLE18=This Love
TTITLE19=Crazy
TTITLE20=O Holy Night
EXTD=YEAR: 2003
EXTT0=
EXTT1=
EXTT2=
EXTT3=
EXTT4=
EXTT5=
EXTT6=
EXTT7=
EXTT8=
EXTT9=
EXTT10=
EXTT11=
EXTT12=
EXTT13=
EXTT14=
EXTT15=
EXTT16=
EXTT17=
EXTT18=
EXTT19=
EXTT20=
PLAYORDER=
